# Blender 4.0.2
# www.blender.org
mtllib bone.mtl
o Cube
v 0.000000 1.000000 0.000000
v 0.000000 0.000000 0.000000
v 0.050000 0.121834 -0.050000
v -0.050000 0.121834 0.050000
v 0.050000 0.121834 0.050000
v -0.050000 0.121834 -0.050000
vn -0.0000 0.0568 0.9984
vn -0.9984 0.0568 -0.0000
vn 0.9984 0.0568 -0.0000
vn -0.0000 0.0568 -0.9984
vn -0.0000 -0.3797 -0.9251
vn 0.9251 -0.3797 -0.0000
vn -0.9251 -0.3797 -0.0000
vn -0.0000 -0.3797 0.9251
vt 0.249827 0.125000
vt 0.249827 0.749135
vt 0.000173 0.624308
vt 0.499827 0.125000
vt 0.499827 0.749135
vt 0.250173 0.624308
vt 0.999827 0.125000
vt 0.999827 0.749135
vt 0.750173 0.624308
vt 0.749827 0.125000
vt 0.749827 0.749135
vt 0.500173 0.624308
vt 0.500173 0.000173
vt 0.750173 0.000173
vt 0.250173 0.000173
vt 0.000173 0.000173
s 0
usemtl Material
f 5/1/1 1/2/1 4/3/1
f 4/4/2 1/5/2 6/6/2
f 3/7/3 1/8/3 5/9/3
f 6/10/4 1/11/4 3/12/4
f 2/13/5 6/10/5 3/12/5
f 2/14/6 3/7/6 5/9/6
f 2/15/7 4/4/7 6/6/7
f 2/16/8 5/1/8 4/3/8
