# Blender 4.0.2
# www.blender.org
mtllib grass_blade.mtl
o Cube
v 0.034898 0.616121 0.014914
v 0.051283 0.000000 -0.002469
v -0.034898 0.616121 0.014914
v -0.051283 0.000000 -0.002469
v 0.019489 1.110131 0.005920
v -0.019489 1.110131 0.005920
v -0.000000 1.254584 0.001795
v -0.027193 0.885702 0.010417
v 0.027193 0.885702 0.010417
vn -0.0000 -0.0282 0.9996
vn -0.0000 -0.0062 1.0000
vn -0.0000 0.0183 0.9998
vn -0.0000 0.0241 0.9997
vn -0.0000 0.0285 0.9996
vt 0.660255 0.000539
vt 0.621407 0.490684
vt 0.455923 0.490684
vt 0.417074 0.000539
vt 0.474190 0.659625
vt 0.603140 0.659625
vt 0.584873 0.828565
vt 0.492456 0.828565
vt 0.538665 1.000000
s 1
usemtl Material
f 2/1/1 1/2/2 3/3/2 4/4/1
f 8/5/3 9/6/3 5/7/4 6/8/4
f 6/8/4 5/7/4 7/9/5
f 3/3/2 1/2/2 9/6/3 8/5/3
