# Blender 4.0.2
# www.blender.org
mtllib plane.mtl
o Cube
v -3.060750 -0.459897 -3.060750
v 3.715053 -1.213827 -3.715053
v 3.060750 -0.459897 -3.060750
v 3.715053 -1.213827 3.715053
v -3.060750 -0.459897 3.060750
v -3.715053 -1.213827 -3.715053
v 3.060750 -0.459897 3.060750
v -3.715053 -1.213827 3.715053
v 2.976041 0.077508 -2.976041
v 3.022194 0.034811 -3.022194
v 2.976041 0.077508 2.976041
v 3.022194 0.034811 3.022194
v -2.976041 0.077508 -2.976041
v -3.022194 0.034811 -3.022194
v -2.976041 0.077508 2.976041
v -3.022194 0.034811 3.022194
v 3.715053 -0.653819 -3.715053
v 3.680904 -0.610392 -3.680904
v 3.715053 -0.653819 3.715053
v 3.680904 -0.610392 3.680904
v -3.680904 -0.610392 -3.680904
v -3.715053 -0.653819 -3.715053
v -3.680904 -0.610392 3.680904
v -3.715053 -0.653819 3.715053
vn -0.2358 0.9718 -0.0000
vn -0.0000 0.0777 0.9970
vn -0.0000 -1.0000 -0.0000
vn -0.0000 0.0777 -0.9970
vn -0.0000 0.9718 0.2358
vn -0.0000 -0.0000 1.0000
vn 1.0000 -0.0000 -0.0000
vn -1.0000 -0.0000 -0.0000
vn -0.0000 -0.0000 -1.0000
vn 0.2358 0.9718 -0.0000
vn -0.0000 1.0000 -0.0000
vn -0.9970 0.0777 -0.0000
vn -0.0000 0.7341 0.6791
vn 0.6791 0.7341 -0.0000
vn -0.6791 0.7341 -0.0000
vn -0.0000 0.7341 -0.6791
vn 0.9970 0.0777 -0.0000
vn -0.0000 0.6181 0.7861
vn 0.7861 0.6181 -0.0000
vn -0.7861 0.6181 -0.0000
vn -0.0000 0.6181 -0.7861
vn -0.0000 0.9718 -0.2358
vt -1.201991 0.678034
vt -1.201991 2.343675
vt -1.370733 2.512417
vt -1.370733 0.509292
vt 1.443611 -1.501926
vt 1.443611 0.142733
vt 1.308697 0.153224
vt 1.308697 -1.512417
vt 0.650976 0.509292
vt -1.370733 -1.512417
vt 0.650976 -1.512417
vt 1.578526 -1.501926
vt 1.578526 0.142733
vt 1.443612 0.153224
vt 1.443612 -1.512417
vt 0.463650 0.678034
vt 0.632392 0.509292
vt 0.815406 0.509292
vt 0.663145 0.509292
vt 0.663145 -1.512417
vt 0.815406 -1.512417
vt 0.979836 0.509292
vt 0.827575 0.509292
vt 0.827575 -1.512417
vt 0.979836 -1.512417
vt 1.144266 0.509292
vt 0.992005 0.509292
vt 0.992005 -1.512417
vt 1.144266 -1.512417
vt 1.308697 0.509292
vt 1.156435 0.509292
vt 1.156435 -1.512417
vt 0.463650 2.343675
vt 0.632392 2.512417
vt 2.264494 2.141393
vt 0.644951 2.141393
vt 0.644951 0.521850
vt 2.264494 0.521850
vt 1.713441 -1.501926
vt 1.713441 0.142733
vt 1.578526 0.153224
vt 1.578526 -1.512417
vt 2.277052 0.509292
vt 2.277052 2.153951
vt 0.632392 2.153951
vt 1.848356 -1.501926
vt 1.848356 0.142733
vt 1.713441 0.153224
vt 1.713441 -1.512417
vt 0.650976 0.500000
vt 0.650976 -1.503125
vt 0.815406 0.500000
vt 0.815406 -1.503125
vt 0.979836 0.500000
vt 0.979836 -1.503125
vt 1.144266 0.500000
vt 1.144266 -1.503125
s 0
usemtl Material
f 5/1/1 1/2/1 21/3/1 23/4/1
f 12/5/2 16/6/2 5/7/2 7/8/2
f 6/9/3 2/4/3 4/10/3 8/11/3
f 14/12/4 10/13/4 3/14/4 1/15/4
f 7/16/5 5/1/5 23/4/5 20/17/5
f 4/18/6 19/19/6 24/20/6 8/21/6
f 2/22/7 17/23/7 19/24/7 4/25/7
f 8/26/8 24/27/8 22/28/8 6/29/8
f 6/30/9 22/31/9 17/32/9 2/8/9
f 3/33/10 7/16/10 20/17/10 18/34/10
f 9/35/11 13/36/11 15/37/11 11/38/11
f 16/39/12 14/40/12 1/41/12 5/42/12
f 11/38/13 15/37/13 16/17/13 12/43/13
f 9/35/14 11/38/14 12/43/14 10/44/14
f 15/37/15 13/36/15 14/45/15 16/17/15
f 13/36/16 9/35/16 10/44/16 14/45/16
f 10/46/17 12/47/17 7/48/17 3/49/17
f 24/20/18 19/19/18 20/50/18 23/51/18
f 19/24/19 17/23/19 18/52/19 20/53/19
f 22/28/20 24/27/20 23/54/20 21/55/20
f 17/32/21 22/31/21 21/56/21 18/57/21
f 1/2/22 3/33/22 18/34/22 21/3/22
